{
	"asset":{
		"generator":"Khronos glTF Blender I/O v4.2.57",
		"version":"2.0"
	},
	"scene":0,
	"scenes":[
		{
			"name":"Scene",
			"nodes":[
				0
			]
		}
	],
	"nodes":[
		{
			"mesh":0,
			"name":"Circle",
			"rotation":[
				0.7071068286895752,
				0,
				0,
				0.7071067690849304
			],
			"scale":[
				0.006527152378112078,
				0.006527152378112078,
				0.006527152378112078
			],
			"translation":[
				0.20000848174095154,
				-0.03336647152900696,
				0.0565899983048439
			]
		}
	],
	"meshes":[
		{
			"name":"Circle",
			"primitives":[
				{
					"attributes":{
						"POSITION":0,
						"NORMAL":1,
						"TEXCOORD_0":2
					},
					"indices":3
				}
			]
		}
	],
	"accessors":[
		{
			"bufferView":0,
			"componentType":5126,
			"count":7326,
			"max":[
				34.86900329589844,
				7.653603553771973,
				2.879645586013794
			],
			"min":[
				-96.15406799316406,
				-24.99347686767578,
				-11.568593978881836
			],
			"type":"VEC3"
		},
		{
			"bufferView":1,
			"componentType":5126,
			"count":7326,
			"type":"VEC3"
		},
		{
			"bufferView":2,
			"componentType":5126,
			"count":7326,
			"type":"VEC2"
		},
		{
			"bufferView":3,
			"componentType":5123,
			"count":40848,
			"type":"SCALAR"
		}
	],
	"bufferViews":[
		{
			"buffer":0,
			"byteLength":87912,
			"byteOffset":0,
			"target":34962
		},
		{
			"buffer":0,
			"byteLength":87912,
			"byteOffset":87912,
			"target":34962
		},
		{
			"buffer":0,
			"byteLength":58608,
			"byteOffset":175824,
			"target":34962
		},
		{
			"buffer":0,
			"byteLength":81696,
			"byteOffset":234432,
			"target":34963
		}
	],
	"buffers":[
		{
			"byteLength":316128,
			"uri":"skaty.bin"
		}
	]
}
