{
	"asset":{
		"generator":"Khronos glTF Blender I/O v4.2.57",
		"version":"2.0"
	},
	"extensionsUsed":[
		"KHR_texture_transform"
	],
	"extensionsRequired":[
		"KHR_texture_transform"
	],
	"scene":0,
	"scenes":[
		{
			"name":"Scene",
			"nodes":[
				0,
				1,
				2,
				3,
				4,
				5,
				6,
				7,
				8,
				9
			]
		}
	],
	"nodes":[
		{
			"mesh":0,
			"name":"Plane",
			"rotation":[
				0.5,
				-0.5,
				-0.5,
				0.5000000596046448
			],
			"scale":[
				0.05376427620649338,
				0.05376427620649338,
				0.05376427620649338
			]
		},
		{
			"mesh":1,
			"name":"Plane.001",
			"scale":[
				0.38849061727523804,
				0.6644715070724487,
				0.10654520988464355
			],
			"translation":[
				0,
				-0.0038445775862783194,
				0
			]
		},
		{
			"mesh":2,
			"name":"Plane.002",
			"scale":[
				0.011405753903090954,
				0.08700519800186157,
				0.08700519800186157
			],
			"translation":[
				0.20000000298023224,
				-0.00553422886878252,
				0
			]
		},
		{
			"mesh":3,
			"name":"Cylinder",
			"rotation":[
				0.7071068286895752,
				0,
				0,
				0.7071068286895752
			],
			"scale":[
				0.0046934699639678,
				0.059084005653858185,
				0.0046934699639678
			],
			"translation":[
				0.20000305771827698,
				-0.033416248857975006,
				0
			]
		},
		{
			"mesh":4,
			"name":"Circle",
			"rotation":[
				0.7071068286895752,
				0,
				0,
				0.7071067690849304
			],
			"scale":[
				0.006527152378112078,
				0.006527152378112078,
				0.006527152378112078
			],
			"translation":[
				0.20000848174095154,
				-0.03336647152900696,
				0.0565899983048439
			]
		},
		{
			"mesh":5,
			"name":"Circle.001",
			"rotation":[
				0,
				0.7071068286895752,
				-0.7071068286895752,
				0
			],
			"scale":[
				0.00652715191245079,
				0.00652715191245079,
				0.00652715191245079
			],
			"translation":[
				0.20000848174095154,
				-0.03336647152900696,
				-0.0565899983048439
			]
		},
		{
			"mesh":6,
			"name":"Plane.003",
			"scale":[
				0.011405753903090954,
				0.08700519800186157,
				0.08700519800186157
			],
			"translation":[
				-0.20113901793956757,
				-0.00553422886878252,
				0
			]
		},
		{
			"mesh":7,
			"name":"Cylinder.001",
			"rotation":[
				0.7071068286895752,
				0,
				0,
				0.7071068286895752
			],
			"scale":[
				0.0046934699639678,
				0.059084005653858185,
				0.0046934699639678
			],
			"translation":[
				-0.20113596320152283,
				-0.033416248857975006,
				0
			]
		},
		{
			"mesh":8,
			"name":"Circle.002",
			"rotation":[
				0.7071068286895752,
				0,
				0,
				0.7071067690849304
			],
			"scale":[
				0.006527152378112078,
				0.006527152378112078,
				0.006527152378112078
			],
			"translation":[
				-0.20113053917884827,
				-0.03336647152900696,
				0.0565899983048439
			]
		},
		{
			"mesh":9,
			"name":"Circle.003",
			"rotation":[
				0,
				0.7071068286895752,
				-0.7071068286895752,
				0
			],
			"scale":[
				0.00652715191245079,
				0.00652715191245079,
				0.00652715191245079
			],
			"translation":[
				-0.20113053917884827,
				-0.03336647152900696,
				-0.0565899983048439
			]
		}
	],
	"materials":[
		{
			"doubleSided":true,
			"name":"Material.001",
			"pbrMetallicRoughness":{
				"baseColorTexture":{
					"extensions":{
						"KHR_texture_transform":{
							"offset":[
								0,
								-2
							],
							"scale":[
								3,
								3
							]
						}
					},
					"index":0
				},
				"metallicFactor":0,
				"roughnessFactor":0.15607476234436035
			}
		},
		{
			"doubleSided":true,
			"name":"Material.004",
			"pbrMetallicRoughness":{
				"baseColorFactor":[
					0.04791121184825897,
					0.04791121184825897,
					0.04791121184825897,
					1
				],
				"metallicFactor":0,
				"roughnessFactor":0.4616822600364685
			}
		},
		{
			"doubleSided":true,
			"name":"Material.002",
			"pbrMetallicRoughness":{
				"baseColorFactor":[
					0.04791121184825897,
					0.04791121184825897,
					0.04791121184825897,
					1
				],
				"roughnessFactor":0.20000000298023224
			}
		},
		{
			"doubleSided":true,
			"name":"Material.003",
			"pbrMetallicRoughness":{
				"baseColorFactor":[
					0.8004080057144165,
					0.46011102199554443,
					0.08320599794387817,
					1
				],
				"metallicFactor":0,
				"roughnessFactor":0.800000011920929
			}
		}
	],
	"meshes":[
		{
			"name":"Plane.005",
			"primitives":[
				{
					"attributes":{
						"POSITION":0,
						"NORMAL":1
					},
					"indices":2
				}
			]
		},
		{
			"name":"Plane",
			"primitives":[
				{
					"attributes":{
						"POSITION":3,
						"NORMAL":4,
						"TEXCOORD_0":5
					},
					"indices":6,
					"material":0
				},
				{
					"attributes":{
						"POSITION":7,
						"NORMAL":8,
						"TEXCOORD_0":9
					},
					"indices":10,
					"material":1
				}
			]
		},
		{
			"name":"Plane.001",
			"primitives":[
				{
					"attributes":{
						"POSITION":11,
						"NORMAL":12,
						"TEXCOORD_0":13
					},
					"indices":14,
					"material":2
				}
			]
		},
		{
			"name":"Cylinder",
			"primitives":[
				{
					"attributes":{
						"POSITION":15,
						"NORMAL":16,
						"TEXCOORD_0":17
					},
					"indices":18,
					"material":2
				}
			]
		},
		{
			"name":"Circle",
			"primitives":[
				{
					"attributes":{
						"POSITION":19,
						"NORMAL":20,
						"TEXCOORD_0":21
					},
					"indices":22,
					"material":3
				}
			]
		},
		{
			"name":"Circle.002",
			"primitives":[
				{
					"attributes":{
						"POSITION":23,
						"NORMAL":24,
						"TEXCOORD_0":25
					},
					"indices":22,
					"material":3
				}
			]
		},
		{
			"name":"Plane.003",
			"primitives":[
				{
					"attributes":{
						"POSITION":26,
						"NORMAL":27,
						"TEXCOORD_0":28
					},
					"indices":14,
					"material":2
				}
			]
		},
		{
			"name":"Cylinder.001",
			"primitives":[
				{
					"attributes":{
						"POSITION":29,
						"NORMAL":30,
						"TEXCOORD_0":31
					},
					"indices":18,
					"material":2
				}
			]
		},
		{
			"name":"Circle.003",
			"primitives":[
				{
					"attributes":{
						"POSITION":32,
						"NORMAL":33,
						"TEXCOORD_0":34
					},
					"indices":22,
					"material":3
				}
			]
		},
		{
			"name":"Circle.004",
			"primitives":[
				{
					"attributes":{
						"POSITION":35,
						"NORMAL":36,
						"TEXCOORD_0":37
					},
					"indices":22,
					"material":3
				}
			]
		}
	],
	"textures":[
		{
			"sampler":0,
			"source":0
		}
	],
	"images":[
		{
			"mimeType":"image/jpeg",
			"name":"Book_tex",
			"uri":"Book_tex.jpg"
		}
	],
	"accessors":[
		{
			"bufferView":0,
			"componentType":5126,
			"count":7070,
			"max":[
				-0.06589633226394653,
				3.412574291229248,
				16.24725341796875
			],
			"min":[
				-37.32754898071289,
				-2.482013702392578,
				-16.24725341796875
			],
			"type":"VEC3"
		},
		{
			"bufferView":1,
			"componentType":5126,
			"count":7070,
			"type":"VEC3"
		},
		{
			"bufferView":2,
			"componentType":5123,
			"count":10800,
			"type":"SCALAR"
		},
		{
			"bufferView":3,
			"componentType":5126,
			"count":642,
			"max":[
				1.100679874420166,
				0.06921001523733139,
				1.000009536743164
			],
			"min":[
				-1.100679874420166,
				-0.003538464428856969,
				-1.000009536743164
			],
			"type":"VEC3"
		},
		{
			"bufferView":4,
			"componentType":5126,
			"count":642,
			"type":"VEC3"
		},
		{
			"bufferView":5,
			"componentType":5126,
			"count":642,
			"type":"VEC2"
		},
		{
			"bufferView":6,
			"componentType":5123,
			"count":2880,
			"type":"SCALAR"
		},
		{
			"bufferView":7,
			"componentType":5126,
			"count":320,
			"max":[
				1.100679874420166,
				0.06921001523733139,
				1.000009536743164
			],
			"min":[
				-1.100679874420166,
				-0.0035384641960263252,
				-1.000009536743164
			],
			"type":"VEC3"
		},
		{
			"bufferView":8,
			"componentType":5126,
			"count":320,
			"type":"VEC3"
		},
		{
			"bufferView":9,
			"componentType":5126,
			"count":320,
			"type":"VEC2"
		},
		{
			"bufferView":10,
			"componentType":5123,
			"count":960,
			"type":"SCALAR"
		},
		{
			"bufferView":11,
			"componentType":5126,
			"count":332,
			"max":[
				1,
				0,
				0.9999999403953552
			],
			"min":[
				-1,
				-0.46173954010009766,
				-0.9999999403953552
			],
			"type":"VEC3"
		},
		{
			"bufferView":12,
			"componentType":5126,
			"count":332,
			"type":"VEC3"
		},
		{
			"bufferView":13,
			"componentType":5126,
			"count":332,
			"type":"VEC2"
		},
		{
			"bufferView":14,
			"componentType":5123,
			"count":684,
			"type":"SCALAR"
		},
		{
			"bufferView":15,
			"componentType":5126,
			"count":66,
			"max":[
				1,
				1,
				1
			],
			"min":[
				-1,
				-1,
				-1
			],
			"type":"VEC3"
		},
		{
			"bufferView":16,
			"componentType":5126,
			"count":66,
			"type":"VEC3"
		},
		{
			"bufferView":17,
			"componentType":5126,
			"count":66,
			"type":"VEC2"
		},
		{
			"bufferView":18,
			"componentType":5123,
			"count":180,
			"type":"SCALAR"
		},
		{
			"bufferView":19,
			"componentType":5126,
			"count":1472,
			"max":[
				2.9009499549865723,
				2.334221363067627,
				2.8796448707580566
			],
			"min":[
				-2.900941848754883,
				-0.6029412746429443,
				-2.9222471714019775
			],
			"type":"VEC3"
		},
		{
			"bufferView":20,
			"componentType":5126,
			"count":1472,
			"type":"VEC3"
		},
		{
			"bufferView":21,
			"componentType":5126,
			"count":1472,
			"type":"VEC2"
		},
		{
			"bufferView":22,
			"componentType":5123,
			"count":8820,
			"type":"SCALAR"
		},
		{
			"bufferView":23,
			"componentType":5126,
			"count":1472,
			"max":[
				2.9009499549865723,
				2.334221363067627,
				2.8796448707580566
			],
			"min":[
				-2.900941848754883,
				-0.6029412746429443,
				-2.9222471714019775
			],
			"type":"VEC3"
		},
		{
			"bufferView":24,
			"componentType":5126,
			"count":1472,
			"type":"VEC3"
		},
		{
			"bufferView":25,
			"componentType":5126,
			"count":1472,
			"type":"VEC2"
		},
		{
			"bufferView":26,
			"componentType":5126,
			"count":332,
			"max":[
				1,
				0,
				0.9999999403953552
			],
			"min":[
				-1,
				-0.46173954010009766,
				-0.9999999403953552
			],
			"type":"VEC3"
		},
		{
			"bufferView":27,
			"componentType":5126,
			"count":332,
			"type":"VEC3"
		},
		{
			"bufferView":28,
			"componentType":5126,
			"count":332,
			"type":"VEC2"
		},
		{
			"bufferView":29,
			"componentType":5126,
			"count":66,
			"max":[
				1,
				1,
				1
			],
			"min":[
				-1,
				-1,
				-1
			],
			"type":"VEC3"
		},
		{
			"bufferView":30,
			"componentType":5126,
			"count":66,
			"type":"VEC3"
		},
		{
			"bufferView":31,
			"componentType":5126,
			"count":66,
			"type":"VEC2"
		},
		{
			"bufferView":32,
			"componentType":5126,
			"count":1472,
			"max":[
				2.9009499549865723,
				2.334221363067627,
				2.8796448707580566
			],
			"min":[
				-2.900941848754883,
				-0.6029412746429443,
				-2.9222471714019775
			],
			"type":"VEC3"
		},
		{
			"bufferView":33,
			"componentType":5126,
			"count":1472,
			"type":"VEC3"
		},
		{
			"bufferView":34,
			"componentType":5126,
			"count":1472,
			"type":"VEC2"
		},
		{
			"bufferView":35,
			"componentType":5126,
			"count":1472,
			"max":[
				2.9009499549865723,
				2.334221363067627,
				2.8796448707580566
			],
			"min":[
				-2.900941848754883,
				-0.6029412746429443,
				-2.9222471714019775
			],
			"type":"VEC3"
		},
		{
			"bufferView":36,
			"componentType":5126,
			"count":1472,
			"type":"VEC3"
		},
		{
			"bufferView":37,
			"componentType":5126,
			"count":1472,
			"type":"VEC2"
		}
	],
	"bufferViews":[
		{
			"buffer":0,
			"byteLength":84840,
			"byteOffset":0,
			"target":34962
		},
		{
			"buffer":0,
			"byteLength":84840,
			"byteOffset":84840,
			"target":34962
		},
		{
			"buffer":0,
			"byteLength":21600,
			"byteOffset":169680,
			"target":34963
		},
		{
			"buffer":0,
			"byteLength":7704,
			"byteOffset":191280,
			"target":34962
		},
		{
			"buffer":0,
			"byteLength":7704,
			"byteOffset":198984,
			"target":34962
		},
		{
			"buffer":0,
			"byteLength":5136,
			"byteOffset":206688,
			"target":34962
		},
		{
			"buffer":0,
			"byteLength":5760,
			"byteOffset":211824,
			"target":34963
		},
		{
			"buffer":0,
			"byteLength":3840,
			"byteOffset":217584,
			"target":34962
		},
		{
			"buffer":0,
			"byteLength":3840,
			"byteOffset":221424,
			"target":34962
		},
		{
			"buffer":0,
			"byteLength":2560,
			"byteOffset":225264,
			"target":34962
		},
		{
			"buffer":0,
			"byteLength":1920,
			"byteOffset":227824,
			"target":34963
		},
		{
			"buffer":0,
			"byteLength":3984,
			"byteOffset":229744,
			"target":34962
		},
		{
			"buffer":0,
			"byteLength":3984,
			"byteOffset":233728,
			"target":34962
		},
		{
			"buffer":0,
			"byteLength":2656,
			"byteOffset":237712,
			"target":34962
		},
		{
			"buffer":0,
			"byteLength":1368,
			"byteOffset":240368,
			"target":34963
		},
		{
			"buffer":0,
			"byteLength":792,
			"byteOffset":241736,
			"target":34962
		},
		{
			"buffer":0,
			"byteLength":792,
			"byteOffset":242528,
			"target":34962
		},
		{
			"buffer":0,
			"byteLength":528,
			"byteOffset":243320,
			"target":34962
		},
		{
			"buffer":0,
			"byteLength":360,
			"byteOffset":243848,
			"target":34963
		},
		{
			"buffer":0,
			"byteLength":17664,
			"byteOffset":244208,
			"target":34962
		},
		{
			"buffer":0,
			"byteLength":17664,
			"byteOffset":261872,
			"target":34962
		},
		{
			"buffer":0,
			"byteLength":11776,
			"byteOffset":279536,
			"target":34962
		},
		{
			"buffer":0,
			"byteLength":17640,
			"byteOffset":291312,
			"target":34963
		},
		{
			"buffer":0,
			"byteLength":17664,
			"byteOffset":308952,
			"target":34962
		},
		{
			"buffer":0,
			"byteLength":17664,
			"byteOffset":326616,
			"target":34962
		},
		{
			"buffer":0,
			"byteLength":11776,
			"byteOffset":344280,
			"target":34962
		},
		{
			"buffer":0,
			"byteLength":3984,
			"byteOffset":356056,
			"target":34962
		},
		{
			"buffer":0,
			"byteLength":3984,
			"byteOffset":360040,
			"target":34962
		},
		{
			"buffer":0,
			"byteLength":2656,
			"byteOffset":364024,
			"target":34962
		},
		{
			"buffer":0,
			"byteLength":792,
			"byteOffset":366680,
			"target":34962
		},
		{
			"buffer":0,
			"byteLength":792,
			"byteOffset":367472,
			"target":34962
		},
		{
			"buffer":0,
			"byteLength":528,
			"byteOffset":368264,
			"target":34962
		},
		{
			"buffer":0,
			"byteLength":17664,
			"byteOffset":368792,
			"target":34962
		},
		{
			"buffer":0,
			"byteLength":17664,
			"byteOffset":386456,
			"target":34962
		},
		{
			"buffer":0,
			"byteLength":11776,
			"byteOffset":404120,
			"target":34962
		},
		{
			"buffer":0,
			"byteLength":17664,
			"byteOffset":415896,
			"target":34962
		},
		{
			"buffer":0,
			"byteLength":17664,
			"byteOffset":433560,
			"target":34962
		},
		{
			"buffer":0,
			"byteLength":11776,
			"byteOffset":451224,
			"target":34962
		}
	],
	"samplers":[
		{
			"magFilter":9729,
			"minFilter":9987
		}
	],
	"buffers":[
		{
			"byteLength":463000,
			"uri":"Skateboard.bin"
		}
	]
}
