{
	"asset":{
		"generator":"Khronos glTF Blender I/O v4.2.57",
		"version":"2.0"
	},
	"extensionsUsed":[
		"KHR_texture_transform"
	],
	"extensionsRequired":[
		"KHR_texture_transform"
	],
	"scene":0,
	"scenes":[
		{
			"name":"Scene",
			"nodes":[
				0
			]
		}
	],
	"nodes":[
		{
			"mesh":0,
			"name":"Plane.003",
			"scale":[
				0.011405753903090954,
				0.08700519800186157,
				0.08700519800186157
			],
			"translation":[
				-0.20113901793956757,
				-0.00553422886878252,
				0
			]
		}
	],
	"materials":[
		{
			"doubleSided":true,
			"name":"Material.002",
			"pbrMetallicRoughness":{
				"baseColorFactor":[
					0.04791121184825897,
					0.04791121184825897,
					0.04791121184825897,
					1
				],
				"roughnessFactor":0.20000000298023224
			}
		},
		{
			"doubleSided":true,
			"name":"Material.001",
			"pbrMetallicRoughness":{
				"baseColorTexture":{
					"extensions":{
						"KHR_texture_transform":{
							"offset":[
								0,
								-2
							],
							"scale":[
								3,
								3
							]
						}
					},
					"index":0
				},
				"metallicFactor":0,
				"roughnessFactor":0.15607476234436035
			}
		},
		{
			"doubleSided":true,
			"name":"Material.004",
			"pbrMetallicRoughness":{
				"baseColorFactor":[
					0.04791121184825897,
					0.04791121184825897,
					0.04791121184825897,
					1
				],
				"metallicFactor":0,
				"roughnessFactor":0.4616822600364685
			}
		},
		{
			"doubleSided":true,
			"name":"Material.003",
			"pbrMetallicRoughness":{
				"baseColorFactor":[
					0.8004080057144165,
					0.46011102199554443,
					0.08320599794387817,
					1
				],
				"metallicFactor":0,
				"roughnessFactor":0.800000011920929
			}
		}
	],
	"meshes":[
		{
			"name":"Plane.003",
			"primitives":[
				{
					"attributes":{
						"POSITION":0,
						"NORMAL":1,
						"TEXCOORD_0":2
					},
					"indices":3,
					"material":0
				},
				{
					"attributes":{
						"POSITION":4,
						"NORMAL":5,
						"TEXCOORD_0":6
					},
					"indices":7,
					"material":1
				},
				{
					"attributes":{
						"POSITION":8,
						"NORMAL":9,
						"TEXCOORD_0":10
					},
					"indices":11,
					"material":2
				},
				{
					"attributes":{
						"POSITION":12,
						"NORMAL":13,
						"TEXCOORD_0":14
					},
					"indices":15,
					"material":3
				}
			]
		}
	],
	"textures":[
		{
			"sampler":0,
			"source":0
		}
	],
	"images":[
		{
			"mimeType":"image/jpeg",
			"name":"Book_tex.jpg",
			"uri":"../Pictures/Book_tex.jpg"
		}
	],
	"accessors":[
		{
			"bufferView":0,
			"componentType":5126,
			"count":508,
			"max":[
				36.169883728027344,
				7.450580596923828e-09,
				0.9999999403953552
			],
			"min":[
				-1,
				-0.46173954010009766,
				-0.9999999403953552
			],
			"type":"VEC3"
		},
		{
			"bufferView":1,
			"componentType":5126,
			"count":508,
			"type":"VEC3"
		},
		{
			"bufferView":2,
			"componentType":5126,
			"count":508,
			"type":"VEC2"
		},
		{
			"bufferView":3,
			"componentType":5123,
			"count":1728,
			"type":"SCALAR"
		},
		{
			"bufferView":4,
			"componentType":5126,
			"count":642,
			"max":[
				55.12505340576172,
				0.5479872226715088,
				1.2245960235595703
			],
			"min":[
				-19.855308532714844,
				-0.00760364904999733,
				-1.2245960235595703
			],
			"type":"VEC3"
		},
		{
			"bufferView":5,
			"componentType":5126,
			"count":642,
			"type":"VEC3"
		},
		{
			"bufferView":6,
			"componentType":5126,
			"count":642,
			"type":"VEC2"
		},
		{
			"bufferView":7,
			"componentType":5123,
			"count":2880,
			"type":"SCALAR"
		},
		{
			"bufferView":8,
			"componentType":5126,
			"count":320,
			"max":[
				55.12505340576172,
				0.5479872226715088,
				1.2245960235595703
			],
			"min":[
				-19.855308532714844,
				-0.0076036471873521805,
				-1.2245960235595703
			],
			"type":"VEC3"
		},
		{
			"bufferView":9,
			"componentType":5126,
			"count":320,
			"type":"VEC3"
		},
		{
			"bufferView":10,
			"componentType":5126,
			"count":320,
			"type":"VEC2"
		},
		{
			"bufferView":11,
			"componentType":5123,
			"count":960,
			"type":"SCALAR"
		},
		{
			"bufferView":12,
			"componentType":5126,
			"count":5888,
			"max":[
				36.830745697021484,
				-0.10066398978233337,
				0.8255347013473511
			],
			"min":[
				-1.6593799591064453,
				-0.535923421382904,
				-0.8255347013473511
			],
			"type":"VEC3"
		},
		{
			"bufferView":13,
			"componentType":5126,
			"count":5888,
			"type":"VEC3"
		},
		{
			"bufferView":14,
			"componentType":5126,
			"count":5888,
			"type":"VEC2"
		},
		{
			"bufferView":15,
			"componentType":5123,
			"count":35280,
			"type":"SCALAR"
		}
	],
	"bufferViews":[
		{
			"buffer":0,
			"byteLength":6096,
			"byteOffset":0,
			"target":34962
		},
		{
			"buffer":0,
			"byteLength":6096,
			"byteOffset":6096,
			"target":34962
		},
		{
			"buffer":0,
			"byteLength":4064,
			"byteOffset":12192,
			"target":34962
		},
		{
			"buffer":0,
			"byteLength":3456,
			"byteOffset":16256,
			"target":34963
		},
		{
			"buffer":0,
			"byteLength":7704,
			"byteOffset":19712,
			"target":34962
		},
		{
			"buffer":0,
			"byteLength":7704,
			"byteOffset":27416,
			"target":34962
		},
		{
			"buffer":0,
			"byteLength":5136,
			"byteOffset":35120,
			"target":34962
		},
		{
			"buffer":0,
			"byteLength":5760,
			"byteOffset":40256,
			"target":34963
		},
		{
			"buffer":0,
			"byteLength":3840,
			"byteOffset":46016,
			"target":34962
		},
		{
			"buffer":0,
			"byteLength":3840,
			"byteOffset":49856,
			"target":34962
		},
		{
			"buffer":0,
			"byteLength":2560,
			"byteOffset":53696,
			"target":34962
		},
		{
			"buffer":0,
			"byteLength":1920,
			"byteOffset":56256,
			"target":34963
		},
		{
			"buffer":0,
			"byteLength":70656,
			"byteOffset":58176,
			"target":34962
		},
		{
			"buffer":0,
			"byteLength":70656,
			"byteOffset":128832,
			"target":34962
		},
		{
			"buffer":0,
			"byteLength":47104,
			"byteOffset":199488,
			"target":34962
		},
		{
			"buffer":0,
			"byteLength":70560,
			"byteOffset":246592,
			"target":34963
		}
	],
	"samplers":[
		{
			"magFilter":9729,
			"minFilter":9987
		}
	],
	"buffers":[
		{
			"byteLength":317152,
			"uri":"skaty.bin"
		}
	]
}
